<svg xmlns="http://www.w3.org/2000/svg" viewBox="0 0 400 300" data-imageid="closed-store-online-e" imageName="Shopping cart" class="illustrations_image" style="width: 236px;"><g id="_331_shopping_cart_outline" data-name="#331_shopping_cart_outline"><rect x="158.8" y="98.77" width="102.58" height="112.13" fill="#ffbc0e"/><path d="M261.38,211.89H158.8a1,1,0,0,1-1-1V98.77a1,1,0,0,1,1-1H261.38a1,1,0,0,1,1,1V210.89A1,1,0,0,1,261.38,211.89Zm-101.58-2H260.38V99.77H159.8Z" fill="#093f68"/><rect x="138.89" y="115.64" width="84.09" height="105.56" fill="#f56132"/><path d="M223,222.2H138.89a1,1,0,0,1-1-1V115.64a1,1,0,0,1,1-1H223a1,1,0,0,1,1,1V221.2A1,1,0,0,1,223,222.2Zm-83.08-2H222V116.64H139.89Z" fill="#093f68"/><rect x="176.94" y="134.34" width="71.97" height="90.12" fill="#70cc40"/><path d="M248.91,225.46h-72a1,1,0,0,1-1-1V134.34a1,1,0,0,1,1-1h72a1,1,0,0,1,1,1v90.12A1,1,0,0,1,248.91,225.46Zm-71-2h70V135.34h-70Z" fill="#093f68"/><rect x="113.47" y="147.88" width="173.05" height="16.95" rx="8.48" fill="#68e1fd" class="target-color"/><path d="M278.05,165.83H122a9.48,9.48,0,1,1,0-19h156.1a9.48,9.48,0,1,1,0,19Zm-156.1-17a7.48,7.48,0,1,0,0,15h156.1a7.48,7.48,0,1,0,0-15Z" fill="#093f68"/><path d="M123.78,164.83l16.27,61.69c1,4.15,5.46,7.13,10.62,7.13h98.66c5.16,0,9.6-3,10.62-7.13l16.27-61.69ZM167,216.72c0,2.47-2.58,4.48-5.75,4.48s-5.73-2-5.73-4.48V181.11c0-2.47,2.56-4.48,5.73-4.48a6.6,6.6,0,0,1,4.06,1.31,4,4,0,0,1,1.69,3.17Zm25.84,0c0,2.47-2.56,4.48-5.73,4.48s-5.74-2-5.74-4.48V181.11c0-2.47,2.57-4.48,5.74-4.48a6.61,6.61,0,0,1,4,1.31,4,4,0,0,1,1.68,3.17Zm25.85,0c0,2.47-2.57,4.48-5.74,4.48s-5.73-2-5.73-4.48V181.11c0-2.47,2.56-4.48,5.73-4.48a6.62,6.62,0,0,1,4.06,1.31,4,4,0,0,1,1.68,3.17Zm25.85,0c0,2.47-2.56,4.48-5.73,4.48s-5.75-2-5.75-4.48V181.11c0-2.47,2.58-4.48,5.75-4.48a6.61,6.61,0,0,1,4.05,1.31,4,4,0,0,1,1.68,3.17Z" fill="#68e1fd" stroke="#093f68" stroke-linecap="round" stroke-linejoin="round" stroke-width="2" class="target-color"/><circle cx="190.01" cy="75.65" r="9.31" fill="#68e1fd" class="target-color"/><path d="M190,86a10.31,10.31,0,0,1-10.13-8.58,10.31,10.31,0,1,1,11.89,8.43A10.46,10.46,0,0,1,190,86Zm0-18.61a8.31,8.31,0,0,0-8.19,9.7,8.31,8.31,0,0,0,16.38-2.79A8.33,8.33,0,0,0,190,67.35Z" fill="#093f68"/><path d="M144,158.5a4.82,4.82,0,0,1-6.09-6.89l48.25-78.84a4.81,4.81,0,1,1,8.24,5l-48.24,78.84A4.79,4.79,0,0,1,144,158.5Z" fill="#68e1fd" class="target-color"/><path d="M142,159.91a5.81,5.81,0,0,1-5-8.82l48.24-78.85a5.82,5.82,0,0,1,10,6L147,157.11a5.72,5.72,0,0,1-2.61,2.3h0A5.72,5.72,0,0,1,142,159.91Zm2-1.41h0Zm46.28-87.06a3.67,3.67,0,0,0-.92.11A3.81,3.81,0,0,0,187,73.28l-48.24,78.85a3.81,3.81,0,0,0,4.82,5.45,3.76,3.76,0,0,0,1.72-1.51L193.5,77.23A3.83,3.83,0,0,0,192.2,72,3.74,3.74,0,0,0,190.23,71.44Z" fill="#093f68"/><circle cx="209.99" cy="75.65" r="9.31" fill="#68e1fd" class="target-color"/><path d="M210,86a10.46,10.46,0,0,1-1.76-.15A10.25,10.25,0,1,1,210,86Zm0-18.61a8.3,8.3,0,0,0-1.39,16.49,8.3,8.3,0,1,0,2.79-16.37A8.36,8.36,0,0,0,210,67.35Z" fill="#093f68"/><path d="M256.05,158.5a4.82,4.82,0,0,0,6.09-6.89L213.89,72.77a4.81,4.81,0,1,0-8.24,5l48.24,78.84A4.79,4.79,0,0,0,256.05,158.5Z" fill="#68e1fd" class="target-color"/><path d="M258,159.91a5.72,5.72,0,0,1-2.36-.5h0a5.79,5.79,0,0,1-2.62-2.3L204.79,78.27a5.84,5.84,0,0,1,2-8,5.82,5.82,0,0,1,8,2L263,151.08a5.81,5.81,0,0,1-5,8.83Zm-1.55-2.33a3.82,3.82,0,0,0,4.82-5.46L213,73.29A3.81,3.81,0,0,0,207.8,72a3.83,3.83,0,0,0-1.3,5.24l48.24,78.84a3.76,3.76,0,0,0,1.72,1.51Z" fill="#093f68"/><path d="M255,106.56H241.58a1,1,0,1,1,0-2H255a1,1,0,0,1,0,2Z" fill="#093f68"/><path d="M215.87,123.34H200.69a1,1,0,0,1,0-2h15.18a1,1,0,0,1,0,2Z" fill="#093f68"/><path d="M195.05,141.46h-8a1,1,0,0,1,0-2h8a1,1,0,0,1,0,2Z" fill="#093f68"/></g></svg>