<svg xmlns="http://www.w3.org/2000/svg" viewBox="0 0 400 300" data-imageid="recycling-7f" imageName="Online campaign" class="illustrations_image" style="width: 236px;"><g id="_527_online_campaign_outline" data-name="#527_online_campaign_outline"><path d="M304.46,100.1V214.58a5.39,5.39,0,0,1-5.39,5.39H100.93a5.39,5.39,0,0,1-5.39-5.39V100.1Z" fill="#fff"/><path d="M299.07,221H100.93a6.4,6.4,0,0,1-6.39-6.39V100.1a1,1,0,0,1,1-1H304.46a1,1,0,0,1,1,1V214.58A6.4,6.4,0,0,1,299.07,221ZM96.54,101.1V214.58a4.4,4.4,0,0,0,4.39,4.39H299.07a4.4,4.4,0,0,0,4.39-4.39V101.1Z" fill="#093f68"/><path d="M100.93,84.83H299.07a5.39,5.39,0,0,1,5.39,5.39v9.89a0,0,0,0,1,0,0H95.54a0,0,0,0,1,0,0V90.22A5.39,5.39,0,0,1,100.93,84.83Z" fill="#68e1fd" class="target-color"/><path d="M304.46,101.11H95.54a1,1,0,0,1-1-1V90.22a6.4,6.4,0,0,1,6.39-6.39H299.07a6.4,6.4,0,0,1,6.39,6.39v9.89A1,1,0,0,1,304.46,101.11Zm-207.92-2H303.46V90.22a4.4,4.4,0,0,0-4.39-4.39H100.93a4.4,4.4,0,0,0-4.39,4.39Z" fill="#093f68"/><path d="M292,220H108a94.58,94.58,0,0,1,10.86-24.77,95.47,95.47,0,0,1,169.72,14.73A92.56,92.56,0,0,1,292,220Z" fill="#68e1fd" class="target-color"/><path d="M292,221H108a1,1,0,0,1-.8-.4,1,1,0,0,1-.16-.87,95.59,95.59,0,0,1,11-25,96.48,96.48,0,0,1,171.5,14.88A93,93,0,0,1,293,219.7a1,1,0,0,1-.16.87A1,1,0,0,1,292,221Zm-182.66-2H290.67a90.27,90.27,0,0,0-3-8.67A94.48,94.48,0,0,0,109.33,219Z" fill="#093f68"/><path d="M206.88,137.18h9.5a0,0,0,0,1,0,0V175.5a4.75,4.75,0,0,1-4.75,4.75h0a4.75,4.75,0,0,1-4.75-4.75V137.18A0,0,0,0,1,206.88,137.18Z" transform="translate(-52.63 170.73) rotate(-39.47)" fill="#093f68"/><path d="M222.3,177.42l-.56,0a5.68,5.68,0,0,1-3.88-2.07L193.5,145.75a1,1,0,0,1,.14-1.41l7.33-6a1.07,1.07,0,0,1,.73-.22,1,1,0,0,1,.68.36L226.73,168a5.75,5.75,0,0,1-.78,8.1h0A5.75,5.75,0,0,1,222.3,177.42Zm-26.62-32.17,23.72,28.8a3.75,3.75,0,0,0,5.28.51h0A3.73,3.73,0,0,0,226,172a3.76,3.76,0,0,0-.84-2.74l-23.72-28.81Z" fill="#093f68"/><circle cx="250.4" cy="98.45" r="13.61" fill="#ffbc0e"/><path d="M250.42,113.07a14.63,14.63,0,1,1,7.93-2.36A14.64,14.64,0,0,1,250.42,113.07Zm0-27.23a12.46,12.46,0,0,0-6.85,2A12.61,12.61,0,1,0,261,91.58h0A12.62,12.62,0,0,0,250.38,85.84Z" fill="#093f68"/><path d="M231.9,60.42l42.72,65.8s-30.45.92-43.46,9.37L202.81,154a23.43,23.43,0,0,1-25.52-39.3l28.35-18.41C218.66,87.84,231.9,60.42,231.9,60.42Z" fill="#f56132"/><path d="M190.11,158.79a24.44,24.44,0,0,1-13.36-44.93L205.1,95.45c12.63-8.2,25.77-35.2,25.9-35.47a1,1,0,0,1,.84-.56,1,1,0,0,1,.9.45l42.72,65.8a1,1,0,0,1,.05,1,1,1,0,0,1-.86.54c-.3,0-30.32,1-42.95,9.21l-28.35,18.41A24.27,24.27,0,0,1,190.11,158.79ZM232,62.43c-3.06,6-14.4,27.28-25.83,34.7l-28.35,18.41a22.43,22.43,0,0,0,24.42,37.62l28.35-18.41c11.44-7.42,35.46-9.12,42.22-9.46Z" fill="#093f68"/><path d="M189.39,106.85l25.52,39.3L202.81,154A23.43,23.43,0,0,1,177.3,114.7Z" fill="#f56132"/><path d="M190.12,158.79a24.43,24.43,0,0,1-13.37-44.92l12.1-7.86a1,1,0,0,1,.75-.14,1,1,0,0,1,.63.44l25.52,39.3a1,1,0,0,1,.14.75,1,1,0,0,1-.44.63l-12.09,7.85A24.19,24.19,0,0,1,190.12,158.79Zm-1-50.56-11.26,7.31a22.43,22.43,0,0,0,24.43,37.63l11.25-7.31Z" fill="#093f68"/><path d="M177.77,130.66a1,1,0,0,1-.54-1.84l9.62-6.21a1,1,0,0,1,1.08,1.68l-9.62,6.21A1,1,0,0,1,177.77,130.66Z" fill="#093f68"/><path d="M181.84,137.48A1,1,0,0,1,181,137a1,1,0,0,1,.29-1.38l9.62-6.21a1,1,0,1,1,1.09,1.68l-9.62,6.21A1,1,0,0,1,181.84,137.48Z" fill="#093f68"/><path d="M199.05,220l17-21.31a20.14,20.14,0,0,0,9.81-1.08c4.69-1.94,17.37-18.12,21.22-25.37s-3.48-7.15-3.48-7.15a13,13,0,0,0,.23-4.38c-.53-3.25-3.13-2.82-4.67-2.25A8.48,8.48,0,0,0,238,159a4.47,4.47,0,0,0,.72-.7,3.88,3.88,0,0,0,0-5.05c-2.45-3.54-7.7-1.57-7.7-1.57,3-7.21-3-9.42-6.91-8.09-1.72.59-5.5,4-9.14,7.68l-1.85,1.89c-3,3-5.57,5.86-6.57,7l-.43.48-4.53-5.68S194.85,160,192.3,165s-.85,16.11-.85,16.11L159.16,220Z" fill="#ffc9b0"/><path d="M199.05,221H159.16a1,1,0,0,1-.91-.58,1,1,0,0,1,.14-1.06l32-38.56c-.3-2.2-1.4-11.64,1-16.28,2.62-5.08,9.33-10.2,9.61-10.42a1,1,0,0,1,1.39.17l3.8,4.76c1-1.05,3.38-3.67,6.23-6.59l1.77-1.81.09-.09c7.08-7.08,8.92-7.71,9.52-7.92a7.36,7.36,0,0,1,7.58,1.55c.85.91,2,2.82,1.19,6.07,2-.32,5.12-.29,7,2.42a5.17,5.17,0,0,1,.92,4.44,3.66,3.66,0,0,1,4.33,3.44,12.48,12.48,0,0,1-.06,3.64,5.42,5.42,0,0,1,3.85,2.22c1,1.57.74,3.69-.65,6.3-4,7.55-16.73,23.77-21.72,25.83a20.77,20.77,0,0,1-9.76,1.22l-16.66,20.87A1,1,0,0,1,199.05,221Zm-37.76-2h37.28L215.28,198a1,1,0,0,1,.94-.36,19.32,19.32,0,0,0,9.27-1c4.41-1.82,16.95-17.81,20.72-24.91.71-1.34,1.41-3.18.71-4.32-.83-1.36-3.29-1.36-3.3-1.36a1,1,0,0,1-.78-.36,1,1,0,0,1-.21-.83,12.14,12.14,0,0,0,.22-4,2.14,2.14,0,0,0-.85-1.61,3.31,3.31,0,0,0-2.48.13,9.91,9.91,0,0,0-1,.45,1,1,0,0,1-1.33-.32,1,1,0,0,1,.22-1.34,3.56,3.56,0,0,0,.56-.54,2.93,2.93,0,0,0-.05-3.84c-2-2.87-6.48-1.23-6.53-1.21a1,1,0,0,1-1.07-.24,1,1,0,0,1-.2-1.08c1-2.5,1-4.48-.2-5.73a5.42,5.42,0,0,0-5.47-1c-.6.21-2.66,1.35-8.75,7.44l-.08.08-1.76,1.8c-3.32,3.39-6,6.37-6.55,6.94l-.42.47a1.1,1.1,0,0,1-.78.34,1,1,0,0,1-.75-.38l-3.91-4.9c-1.81,1.48-6.36,5.42-8.28,9.15-2.38,4.57-.77,15.39-.75,15.49a1,1,0,0,1-.22.79Z" fill="#093f68"/><path d="M232.84,178.86a1,1,0,0,1-.77-1.65c2.45-2.89,10.78-12.79,10.78-12.79l1.53,1.28s-8.33,9.91-10.78,12.8A1,1,0,0,1,232.84,178.86Z" fill="#093f68"/><path d="M226.23,172.81a1,1,0,0,1-.7-.29,1,1,0,0,1,0-1.41c1.88-1.94,11.65-12.72,11.75-12.82a1,1,0,1,1,1.48,1.34c-.4.44-9.89,10.91-11.79,12.87A1,1,0,0,1,226.23,172.81Z" fill="#093f68"/><path d="M218.57,166a1,1,0,0,1-.57-.17,1,1,0,0,1-.25-1.4c2.75-4,12.21-13.17,12.61-13.56a1,1,0,1,1,1.4,1.43c-.1.1-9.73,9.47-12.37,13.28A1,1,0,0,1,218.57,166Z" fill="#093f68"/><circle cx="106.99" cy="91.71" r="2.35" fill="#f56132"/><path d="M107,89.37a2.35,2.35,0,1,1-2.34,2.34A2.35,2.35,0,0,1,107,89.37m0-2a4.35,4.35,0,1,0,4.35,4.34A4.35,4.35,0,0,0,107,87.37Z" fill="#093f68"/><circle cx="117.79" cy="91.71" r="2.35" fill="#ffbc0e"/><path d="M117.79,89.37a2.35,2.35,0,1,1-2.35,2.34,2.34,2.34,0,0,1,2.35-2.34m0-2a4.35,4.35,0,1,0,4.34,4.34,4.35,4.35,0,0,0-4.34-4.34Z" fill="#093f68"/><circle cx="128.58" cy="91.71" r="2.35" fill="#70cc40"/><path d="M128.58,89.37a2.35,2.35,0,1,1-2.35,2.34,2.35,2.35,0,0,1,2.35-2.34m0-2a4.35,4.35,0,1,0,4.35,4.34,4.35,4.35,0,0,0-4.35-4.34Z" fill="#093f68"/><path d="M171,158.66a22.38,22.38,0,0,1-7.3,16c-3.88,3.49-9.09,5.74-11.63,10.3-3.75,6.76-.45,16.63-6.09,21.92-2.73,2.55-6.91,3.1-10.52,2.16s-6.75-3.19-9.56-5.65a31.86,31.86,0,0,1-6.38-7.06c-.23-.37-.44-.74-.64-1.1a95.66,95.66,0,0,1,51.78-40.57A18.87,18.87,0,0,1,171,158.66Z" fill="#70cc40"/><path d="M138.8,210.44a14,14,0,0,1-3.6-.47c-4.14-1.08-7.5-3.7-10-5.86a33,33,0,0,1-6.57-7.29c-.24-.38-.46-.77-.67-1.14a1,1,0,0,1,0-1,96.67,96.67,0,0,1,52.32-41,1,1,0,0,1,.82.09,1,1,0,0,1,.47.67,20,20,0,0,1,.36,4.25,23.55,23.55,0,0,1-7.63,16.69,48.46,48.46,0,0,1-4.38,3.36c-2.82,2-5.49,3.88-7,6.68s-1.82,6.28-2.09,9.66c-.37,4.56-.74,9.28-4.19,12.51A11.45,11.45,0,0,1,138.8,210.44ZM120,195.22l.33.55a30.8,30.8,0,0,0,6.19,6.83c2.3,2,5.42,4.46,9.15,5.44s7.3.21,9.59-1.92c2.87-2.7,3.21-6.84,3.56-11.21.28-3.59.58-7.31,2.33-10.47s4.77-5.31,7.65-7.35a44.2,44.2,0,0,0,4.19-3.21,21.44,21.44,0,0,0,7-15.24h0a18.58,18.58,0,0,0-.14-2.69A94.69,94.69,0,0,0,120,195.22Z" fill="#093f68"/><path d="M288.59,209.93c-4.39-1-8.52-3.29-13-3.64-4.67-.37-9.2,1.4-13.75,2.53-5,1.24-10.46,1.68-15.08-.56s-7.87-7.88-6-12.66c2.35-6.07,10.51-7.21,15.14-11.77,3.13-3.08,4.3-7.28,5.28-11.64A95.39,95.39,0,0,1,288.59,209.93Z" fill="#70cc40"/><path d="M288.59,210.93a.83.83,0,0,1-.22,0,44.13,44.13,0,0,1-5.38-1.66,29.35,29.35,0,0,0-7.51-2c-3.43-.27-6.76.67-10.28,1.66-1.05.29-2.1.59-3.15.85-6.43,1.6-11.58,1.39-15.76-.63-4.84-2.35-8.61-8.51-6.51-13.93,1.55-4,5.33-6,9-7.94a27,27,0,0,0,6.38-4.18c3-2.91,4.06-6.93,5-11.14a1,1,0,0,1,.66-.73,1,1,0,0,1,1,.18,96.7,96.7,0,0,1,27.75,38.13,1,1,0,0,1-.17,1A1,1,0,0,1,288.59,210.93ZM261.73,174c-.93,3.82-2.24,7.64-5.18,10.53a28.32,28.32,0,0,1-6.85,4.51c-3.48,1.85-6.78,3.6-8.06,6.91-1.7,4.39,1.49,9.44,5.53,11.4,3.73,1.81,8.44,2,14.4.48,1-.25,2.06-.54,3.09-.83,3.54-1,7.2-2,11-1.72a31.87,31.87,0,0,1,8,2.06c1.07.38,2.15.77,3.24,1.09A94.57,94.57,0,0,0,261.73,174Z" fill="#093f68"/><path d="M162,188.15a23.36,23.36,0,0,0-3.29,5.59,11.38,11.38,0,0,0-1.3,3.93,3.87,3.87,0,0,0,1.61,3.62,4.49,4.49,0,0,0,2.8.42c4.49-.52,8.23-4.15,9.69-8.42C173.94,186.2,166.65,182.83,162,188.15Z" fill="#70cc40"/><path d="M161,202.76a4.75,4.75,0,0,1-2.48-.61,4.83,4.83,0,0,1-2.09-4.55,12.29,12.29,0,0,1,1.38-4.29,24.47,24.47,0,0,1,3.45-5.82h0c2.92-3.35,6.55-3.5,8.86-2.17,2.63,1.51,3.55,4.76,2.35,8.29-1.67,4.9-5.9,8.56-10.52,9.1C161.63,202.74,161.31,202.76,161,202.76Zm6.14-16.22a5.86,5.86,0,0,0-4.37,2.26h0a23.16,23.16,0,0,0-3.15,5.36,10.87,10.87,0,0,0-1.2,3.59,2.91,2.91,0,0,0,1.12,2.68,3.43,3.43,0,0,0,2.18.29c3.87-.45,7.43-3.57,8.85-7.76.9-2.62.34-4.88-1.44-5.91A4,4,0,0,0,167.15,186.54ZM162,188.15h0Z" fill="#093f68"/><path d="M144.93,116.88H112.44a1,1,0,0,1,0-2h32.49a1,1,0,0,1,0,2Z" fill="#dfeaef"/><path d="M130.93,130.66H112.44a1,1,0,0,1,0-2h18.49a1,1,0,0,1,0,2Z" fill="#dfeaef"/><line x1="254.96" y1="70.94" x2="266.97" y2="53.48" fill="#fff"/><path d="M255,71.94a1,1,0,0,1-.57-.18,1,1,0,0,1-.25-1.39l12-17.45a1,1,0,0,1,1.39-.26,1,1,0,0,1,.26,1.39l-12,17.46A1,1,0,0,1,255,71.94Z" fill="#093f68"/><line x1="266.97" y1="89.01" x2="293.77" y2="72.65" fill="#fff"/><path d="M267,90a1,1,0,0,1-.52-1.86l26.8-16.35a1,1,0,0,1,1.37.33,1,1,0,0,1-.33,1.38l-26.8,16.35A1,1,0,0,1,267,90Z" fill="#093f68"/><line x1="275.74" y1="111.49" x2="294.89" y2="112.64" fill="#fff"/><path d="M294.89,113.64h-.06l-19.15-1.15a1,1,0,1,1,.12-2L295,111.64a1,1,0,0,1-.06,2Z" fill="#093f68"/><path d="M144.93,130.66h-6.59a1,1,0,0,1,0-2h6.59a1,1,0,0,1,0,2Z" fill="#dfeaef"/><path d="M137.21,144.17H112.44a1,1,0,0,1,0-2h24.77a1,1,0,0,1,0,2Z" fill="#dfeaef"/><path d="M292,155.63H272.93a1,1,0,0,1,0-2H292a1,1,0,0,1,0,2Z" fill="#dfeaef"/><path d="M285.31,166.06H272.93a1,1,0,0,1,0-2h12.38a1,1,0,0,1,0,2Z" fill="#dfeaef"/></g></svg>